# xmcd
# 
# Track frame offsets:
#     150
#     2837
#     24090
#     46402
#     67255
#     88572
#     112400
#     124797
#     149192
#     167150
#     189122
#     207737
#     231887
#     250950
# 
# Disc length: 3625
# 
# Revision: 10
# Processed by: cddbd v1.5.2PL0 Copyright (c) Steve Scherf et al.
# Submitted via: fre:ac v1.1beta1pre2
# 
DISCID=d00e270e
DTITLE=鈴木雅之 - Martini
DYEAR=1991
DGENRE=J-Pop
TTITLE0=Introduction -別れの街-
TTITLE1=FIRST LOVE
TTITLE2=たとえきみがどこにいこうと
TTITLE3=Misty Mauve(1991 Re-mix Version)
TTITLE4=Guilty(1991 Re-mix Version)
TTITLE5=ガラス越しに消えた夏
TTITLE6=おやすみロージー-Angel Babyへのオマージュ-
TTITLE7=プライベート　ホテル
TTITLE8=Dry Dry
TTITLE9=Our Love Is Special
TTITLE10=くーな
TTITLE11=ベイサイド・セレナーデ
TTITLE12=私の願い
TTITLE13=別れの街
EXTD=YEAR: 1991
EXTT0=
EXTT1=
EXTT2=
EXTT3=
EXTT4=
EXTT5=
EXTT6=
EXTT7=
EXTT8=
EXTT9=
EXTT10=
EXTT11=
EXTT12=
EXTT13=
PLAYORDER=
